<svg width="40" height="36" viewBox="0 0 40 36" fill="none" xmlns="http://www.w3.org/2000/svg">
<path d="M18.4287 33.7291L19.1982 34.5085" stroke="#1C8493" stroke-width="2" stroke-linecap="round" stroke-linejoin="round"/>
<path d="M15.7344 31.0008L16.5039 31.7802" stroke="#1C8493" stroke-width="2" stroke-linecap="round" stroke-linejoin="round"/>
<path d="M18.4287 31.7802L19.1982 31.0008" stroke="#1C8493" stroke-width="2" stroke-linecap="round" stroke-linejoin="round"/>
<path d="M15.7344 34.5085L16.5039 33.7291" stroke="#1C8493" stroke-width="2" stroke-linecap="round" stroke-linejoin="round"/>
<path d="M28.2335 4.20752C28.933 4.20752 29.5002 3.63309 29.5002 2.9245C29.5002 2.21591 28.933 1.64148 28.2335 1.64148C27.5339 1.64148 26.9668 2.21591 26.9668 2.9245C26.9668 3.63309 27.5339 4.20752 28.2335 4.20752Z" stroke="#1C8493" stroke-width="2" stroke-linecap="round" stroke-linejoin="round"/>
<path d="M9.95312 3.37164V4.27938" stroke="#1C8493" stroke-width="2" stroke-linecap="round" stroke-linejoin="round"/>
<path d="M9.95312 7.00201V7.90975" stroke="#1C8493" stroke-width="2" stroke-linecap="round" stroke-linejoin="round"/>
<path d="M7.71387 5.64075H8.60941" stroke="#1C8493" stroke-width="2" stroke-linecap="round" stroke-linejoin="round"/>
<path d="M11.2969 5.64075H12.193" stroke="#1C8493" stroke-width="2" stroke-linecap="round" stroke-linejoin="round"/>
<path d="M6.38263 2.92453C6.9073 2.92453 7.33263 2.49371 7.33263 1.96226C7.33263 1.43082 6.9073 1 6.38263 1C5.85795 1 5.43262 1.43082 5.43262 1.96226C5.43262 2.49371 5.85795 2.92453 6.38263 2.92453Z" fill="#1C8493"/>
<path d="M5.74981 35C6.27449 35 6.69982 34.5691 6.69982 34.0377C6.69982 33.5063 6.27449 33.0754 5.74981 33.0754C5.22514 33.0754 4.7998 33.5063 4.7998 34.0377C4.7998 34.5691 5.22514 35 5.74981 35Z" fill="#1C8493"/>
<path d="M23.9921 26.6603H1V11.2641H35.2003V22.4636" stroke="#1C8493" stroke-width="2" stroke-linecap="round" stroke-linejoin="round"/>
<path d="M18.0995 24.7358C21.2475 24.7358 23.7995 22.1509 23.7995 18.9622C23.7995 15.7736 21.2475 13.1887 18.0995 13.1887C14.9514 13.1887 12.3994 15.7736 12.3994 18.9622C12.3994 22.1509 14.9514 24.7358 18.0995 24.7358Z" stroke="#1C8493" stroke-width="2" stroke-linecap="round" stroke-linejoin="round"/>
<path d="M10.4995 13.1887H6.06611C6.06611 14.0394 5.73247 14.8552 5.1386 15.4567C4.54473 16.0583 3.73927 16.3962 2.89941 16.3962V20.8868" stroke="#1C8493" stroke-width="2" stroke-linecap="round" stroke-linejoin="round"/>
<path d="M3.53275 14.4717C3.88254 14.4717 4.16609 14.1845 4.16609 13.8302C4.16609 13.4759 3.88254 13.1887 3.53275 13.1887C3.18297 13.1887 2.89941 13.4759 2.89941 13.8302C2.89941 14.1845 3.18297 14.4717 3.53275 14.4717Z" fill="#1C8493"/>
<path d="M32.6674 35.0001C36.1652 35.0001 39.0008 32.1279 39.0008 28.585C39.0008 25.042 36.1652 22.1699 32.6674 22.1699C29.1695 22.1699 26.334 25.042 26.334 28.585C26.334 32.1279 29.1695 35.0001 32.6674 35.0001Z" stroke="#1C8493" stroke-width="2" stroke-linecap="round" stroke-linejoin="round"/>
<path d="M32.6668 33.0754C35.1153 33.0754 37.1001 31.0649 37.1001 28.5849C37.1001 26.1048 35.1153 24.0943 32.6668 24.0943C30.2183 24.0943 28.2334 26.1048 28.2334 28.5849C28.2334 31.0649 30.2183 33.0754 32.6668 33.0754Z" stroke="#1C8493" stroke-width="2" stroke-linecap="round" stroke-linejoin="round"/>
<path d="M16.8341 22.1699V15.7548H19.0507C19.4707 15.7548 19.8734 15.9237 20.1703 16.2245C20.4673 16.5253 20.6341 16.9332 20.6341 17.3585C20.6341 17.7839 20.4673 18.1918 20.1703 18.4926C19.8734 18.7933 19.4707 18.9623 19.0507 18.9623H15.5674" stroke="#1C8493" stroke-width="2" stroke-linecap="round" stroke-linejoin="round"/>
<path d="M15.5674 20.8868H19.3674" stroke="#1C8493" stroke-width="2" stroke-linecap="round" stroke-linejoin="round"/>
</svg>
