<svg width="40" height="28" viewBox="0 0 40 28" fill="none" xmlns="http://www.w3.org/2000/svg">
<path d="M28.7502 17.1818V1.90909C28.7502 0.856466 27.909 0 26.8752 0H1.87501C0.841177 0 0 0.856466 0 1.90909V17.1818C0 18.2344 0.841177 19.0909 1.87501 19.0909H26.8752C27.909 19.0909 28.7502 18.2344 28.7502 17.1818ZM1.25001 17.1818V1.90909C1.25001 1.55822 1.5304 1.27273 1.87501 1.27273H26.8752C27.2198 1.27273 27.5002 1.55822 27.5002 1.90909V17.1818C27.5002 17.5327 27.2198 17.8182 26.8752 17.8182H1.87501C1.5304 17.8182 1.25001 17.5327 1.25001 17.1818Z" fill="#1C8493"/>
<path d="M38.1252 8.909H30.6251C30.28 8.909 30.0001 9.19393 30.0001 9.54536C30.0001 9.89679 30.28 10.1817 30.6251 10.1817H38.1252C38.4698 10.1817 38.7502 10.4672 38.7502 10.8181V13.9999H30.6251C30.28 13.9999 30.0001 14.2848 30.0001 14.6363C30.0001 14.9877 30.28 15.2726 30.6251 15.2726H38.7502V26.0908C38.7502 26.4417 38.4698 26.7272 38.1252 26.7272H13.125C12.7804 26.7272 12.5 26.4417 12.5 26.0908V20.9999C12.5 20.6485 12.2202 20.3635 11.875 20.3635C11.5298 20.3635 11.25 20.6485 11.25 20.9999V26.0908C11.25 27.1434 12.0912 27.9999 13.125 27.9999H38.1252C39.159 27.9999 40.0002 27.1434 40.0002 26.0908V10.8181C40.0002 9.76546 39.159 8.909 38.1252 8.909Z" fill="#1C8493"/>
<path d="M13.125 13.3636H10C9.65485 13.3636 9.375 13.6486 9.375 14C9.375 14.3514 9.65485 14.6364 10 14.6364H13.125C13.4702 14.6364 13.75 14.3514 13.75 14C13.75 13.6486 13.4702 13.3636 13.125 13.3636Z" fill="#1C8493"/>
<path d="M7.50002 13.3636H4.375C4.02985 13.3636 3.75 13.6486 3.75 14C3.75 14.3514 4.02985 14.6364 4.375 14.6364H7.50002C7.84518 14.6364 8.12503 14.3514 8.12503 14C8.12503 13.6486 7.84518 13.3636 7.50002 13.3636Z" fill="#1C8493"/>
<path d="M24.375 13.3636H21.25C20.9048 13.3636 20.625 13.6486 20.625 14C20.625 14.3514 20.9048 14.6364 21.25 14.6364H24.375C24.7202 14.6364 25 14.3514 25 14C25 13.6486 24.7202 13.3636 24.375 13.3636Z" fill="#1C8493"/>
<path d="M18.749 13.3636H15.624C15.2789 13.3636 14.999 13.6486 14.999 14C14.999 14.3514 15.2789 14.6364 15.624 14.6364H18.749C19.0942 14.6364 19.3741 14.3514 19.3741 14C19.3741 13.6486 19.0942 13.3636 18.749 13.3636Z" fill="#1C8493"/>
<path d="M6.87502 3.18176H5.00001C3.9661 3.18176 3.125 4.03823 3.125 5.09085V5.72722C3.125 6.77984 3.9661 7.63631 5.00001 7.63631H6.87502C7.90894 7.63631 8.75003 6.77984 8.75003 5.72722V5.09085C8.75003 4.03823 7.90894 3.18176 6.87502 3.18176ZM7.50003 5.72722C7.50003 6.07809 7.21963 6.36358 6.87502 6.36358H5.00001C4.6554 6.36358 4.37501 6.07809 4.37501 5.72722V5.09085C4.37501 4.73998 4.6554 4.45449 5.00001 4.45449H6.87502C7.21963 4.45449 7.50003 4.73998 7.50003 5.09085V5.72722Z" fill="#1C8493"/>
<path d="M23.126 3.18176C22.3798 3.18176 21.7094 3.51673 21.251 4.04626C20.7926 3.51673 20.1222 3.18176 19.376 3.18176C17.9975 3.18176 16.876 4.32364 16.876 5.72722C16.876 7.1308 17.9975 8.27267 19.376 8.27267C20.1222 8.27267 20.7926 7.93771 21.251 7.40817C21.7094 7.93771 22.3798 8.27267 23.126 8.27267C24.5045 8.27267 25.626 7.1308 25.626 5.72722C25.626 4.32364 24.5045 3.18176 23.126 3.18176ZM19.376 6.99994C18.6868 6.99994 18.126 6.42897 18.126 5.72722C18.126 5.02547 18.6868 4.45449 19.376 4.45449C20.0652 4.45449 20.626 5.02547 20.626 5.72722C20.626 6.42897 20.0652 6.99994 19.376 6.99994ZM23.126 6.99994C22.4368 6.99994 21.876 6.42897 21.876 5.72722C21.876 5.02547 22.4368 4.45449 23.126 4.45449C23.8152 4.45449 24.376 5.02547 24.376 5.72722C24.376 6.42897 23.8152 6.99994 23.126 6.99994Z" fill="#1C8493"/>
<path d="M30.626 12.7273H37.501C37.8462 12.7273 38.126 12.4423 38.126 12.0909C38.126 11.7395 37.8462 11.4545 37.501 11.4545H30.626C30.2808 11.4545 30.001 11.7395 30.001 12.0909C30.001 12.4423 30.2808 12.7273 30.626 12.7273Z" fill="#1C8493"/>
<path d="M35.6251 20.3636H23.75C23.4048 20.3636 23.125 20.6486 23.125 21C23.125 21.3514 23.4048 21.6364 23.75 21.6364H35.6251C35.9702 21.6364 36.2501 21.3514 36.2501 21C36.2501 20.6486 35.9702 20.3636 35.6251 20.3636Z" fill="#1C8493"/>
<path d="M35.625 22.909H28.125C27.7798 22.909 27.5 23.1939 27.5 23.5454C27.5 23.8968 27.7798 24.1817 28.125 24.1817H35.625C35.9702 24.1817 36.2501 23.8968 36.2501 23.5454C36.2501 23.1939 35.9702 22.909 35.625 22.909Z" fill="#1C8493"/>
</svg>
