<svg width="41" height="41" viewBox="0 0 41 41" fill="none" xmlns="http://www.w3.org/2000/svg">
<g clip-path="url(#clip0_427_253)">
<path d="M39.283 0.108643H0.95798C0.456395 0.108643 0.0498047 0.516828 0.0498047 1.02018V39.487C0.0498047 39.9903 0.456395 40.3985 0.95798 40.3985H39.283C39.7846 40.3985 40.1911 39.9903 40.1911 39.487V1.02018C40.1911 0.516828 39.7846 0.108643 39.283 0.108643ZM38.3748 38.5754H1.86616V1.93171H38.3748V38.5754Z" fill="#1C8493"/>
<path d="M24.9252 13.6166C24.9068 13.6032 24.8879 13.5915 24.8689 13.5797C23.5296 12.6171 21.8901 12.0498 20.1208 12.0498C18.3516 12.0498 16.7121 12.6171 15.3728 13.5797C15.3538 13.5915 15.3348 13.6032 15.3165 13.6166C15.2965 13.6311 15.278 13.6468 15.2596 13.6627C13.2513 15.1589 11.9473 17.5562 11.9473 20.2536C11.9473 24.7772 15.6139 28.4574 20.1208 28.4574C24.6278 28.4574 28.2944 24.7772 28.2944 20.2536C28.2944 17.5562 26.9904 15.1589 24.9821 13.6627C24.9637 13.6469 24.9452 13.6311 24.9252 13.6166ZM20.1208 22.9882C18.6185 22.9882 17.3963 21.7615 17.3963 20.2536C17.3963 18.7458 18.6185 17.519 20.1208 17.519C21.6231 17.519 22.8454 18.7458 22.8454 20.2536C22.8454 21.7615 21.6231 22.9882 20.1208 22.9882ZM23.0831 14.6105L22.0003 16.1064C21.4272 15.8436 20.7911 15.6959 20.1208 15.6959C19.4506 15.6959 18.8145 15.8436 18.2414 16.1063L17.1586 14.6104C18.0438 14.1404 19.0516 13.8729 20.1208 13.8729C21.1901 13.8729 22.1979 14.1404 23.0831 14.6105ZM15.6904 15.6839L16.7724 17.1787C16.0323 17.9899 15.58 19.0696 15.58 20.2536C15.58 20.4271 15.5906 20.5979 15.6095 20.7664L13.8573 21.3378C13.7969 20.9852 13.7636 20.6233 13.7636 20.2536C13.7636 18.4633 14.5031 16.8438 15.6904 15.6839ZM14.4191 23.0715L16.1722 22.4998C16.8101 23.625 17.9104 24.4532 19.2127 24.7196V26.5683C17.1056 26.2643 15.3296 24.9199 14.4191 23.0715ZM21.029 26.5682V24.7195C22.3312 24.4531 23.4317 23.6249 24.0695 22.4997L25.8225 23.0714C24.9121 24.9199 23.1361 26.2643 21.029 26.5682ZM26.4781 20.2536C26.4781 20.6233 26.4448 20.9852 26.3843 21.3379L24.6322 20.7665C24.6511 20.598 24.6617 20.4271 24.6617 20.2537C24.6617 19.0697 24.2094 17.99 23.4693 17.1788L24.5513 15.684C25.7385 16.8438 26.4781 18.4633 26.4781 20.2536Z" fill="#1C8493"/>
<path d="M4.59078 32.0121V34.9293C4.59078 35.4326 4.99737 35.8408 5.49895 35.8408H34.7422C35.2438 35.8408 35.6504 35.4326 35.6504 34.9293V14.1564C35.6504 13.6531 35.2438 13.2449 34.7422 13.2449C34.2406 13.2449 33.834 13.6531 33.834 14.1564V34.0178H6.40713V32.0121C7.25963 31.6542 7.86021 30.8087 7.86021 29.8247V25.267C7.86021 24.283 7.25963 23.4375 6.40713 23.0796V17.4276C7.25963 17.0698 7.86021 16.2241 7.86021 15.2402V10.6825C7.86021 9.69854 7.25963 8.853 6.40713 8.49513V6.48939H33.834V11.0471C33.834 11.5504 34.2406 11.9586 34.7422 11.9586C35.2438 11.9586 35.6504 11.5504 35.6504 11.0471V5.57786C35.6504 5.07451 35.2438 4.66632 34.7422 4.66632H5.49895C4.99737 4.66632 4.59078 5.07451 4.59078 5.57786V8.49504C3.73827 8.85291 3.1377 9.69845 3.1377 10.6825V15.2401C3.1377 16.2241 3.73827 17.0697 4.59078 17.4275V23.0795C3.73827 23.4374 3.1377 24.283 3.1377 25.2669V29.8246C3.1377 30.8087 3.73827 31.6542 4.59078 32.0121ZM6.04386 25.267V29.8247C6.04386 30.1263 5.79947 30.3716 5.49895 30.3716C5.19844 30.3716 4.95405 30.1263 4.95405 29.8247V25.267C4.95405 24.9654 5.19844 24.7201 5.49895 24.7201C5.79947 24.7201 6.04386 24.9654 6.04386 25.267ZM4.95405 15.2401V10.6825C4.95405 10.3808 5.19844 10.1355 5.49895 10.1355C5.79947 10.1355 6.04386 10.3808 6.04386 10.6825V15.2401C6.04386 15.5418 5.79947 15.7871 5.49895 15.7871C5.19844 15.7871 4.95405 15.5418 4.95405 15.2401Z" fill="#1C8493"/>
</g>
<defs>
<clipPath id="clip0_427_253">
<rect width="40.1413" height="40.2899" fill="white" transform="translate(0.0498047 0.108643)"/>
</clipPath>
</defs>
</svg>
