<svg width="41" height="40" viewBox="0 0 41 40" fill="none" xmlns="http://www.w3.org/2000/svg">
<path d="M36.3468 32.2181C33.5601 33.6155 24.5941 36.4118 20.3546 32.2181C20.3546 32.2181 30.1674 33.0781 30.5313 32.2181C30.8952 31.3581 29.441 29.9606 21.8088 28.3469C14.1765 26.7344 8.72363 28.3469 8.72363 28.3469V38.6692C8.72363 38.6692 13.5692 36.1955 15.9933 37.3793C18.4174 38.563 25.0797 40.2829 29.0784 39.9605C33.0758 39.638 39.4973 34.4768 40.7094 32.7569C41.9188 31.0356 39.1321 30.8194 36.3468 32.2181Z" fill="#1C8493"/>
<path d="M5.81544 28.347H0V39.4242H5.81544V28.347Z" fill="#1C8493"/>
<path d="M31.8217 6.92984L20.5175 0L9.17871 6.91858L10.5368 9.03726L20.5149 2.95117L30.4572 9.04608L31.8217 6.92984Z" fill="#1C8493"/>
<path d="M28.834 10.136H26.2715V19.7932H28.834V10.136Z" fill="#1C8493"/>
<path d="M21.7802 10.136H19.2178V19.7932H21.7802V10.136Z" fill="#1C8493"/>
<path d="M14.7274 10.136H12.165V19.7932H14.7274V10.136Z" fill="#1C8493"/>
<path d="M31.078 21.6445H9.91992V24.1445H31.078V21.6445Z" fill="#1C8493"/>
</svg>
