<svg width="17" height="16" viewBox="0 0 17 16" fill="none" xmlns="http://www.w3.org/2000/svg">
<g clip-path="url(#clip0_1_877)">
<path d="M15.606 12.072L12.57 10.047C12.3842 9.92426 12.1591 9.87596 11.9393 9.91173C11.7195 9.94749 11.5213 10.0647 11.384 10.24L10.499 11.377C10.444 11.4493 10.3649 11.4994 10.276 11.5182C10.1871 11.5369 10.0945 11.523 10.015 11.479L9.84601 11.386C9.28901 11.082 8.59501 10.704 7.19601 9.306C5.79901 7.906 5.42001 7.212 5.11601 6.656L5.02301 6.487C4.97825 6.40755 4.96373 6.31461 4.9821 6.2253C5.00048 6.13598 5.05052 6.05632 5.12301 6.001L6.26001 5.117C6.43539 4.97956 6.55262 4.78114 6.58838 4.5612C6.62414 4.34127 6.57581 4.11593 6.45301 3.93L4.42801 0.894C4.30258 0.704965 4.10907 0.571598 3.88777 0.521675C3.66647 0.471752 3.43444 0.509122 3.24001 0.626L1.97001 1.389C1.57124 1.6236 1.2788 2.00349 1.15401 2.449C0.696007 4.115 1.04001 6.989 5.27501 11.225C8.64401 14.594 11.152 15.5 12.875 15.5C13.2718 15.5018 13.667 15.4504 14.05 15.347C14.4957 15.2221 14.8757 14.9292 15.11 14.53L15.874 13.26C15.9906 13.0655 16.0279 12.8335 15.978 12.6123C15.9281 12.3911 15.7948 12.1976 15.606 12.072ZM15.443 13.004L14.681 14.274C14.513 14.562 14.24 14.774 13.919 14.865C12.381 15.287 9.69501 14.937 5.62901 10.872C1.56301 6.806 1.21401 4.119 1.63601 2.58C1.72701 2.259 1.93901 1.985 2.22701 1.817L3.49701 1.055C3.58137 1.00403 3.68217 0.987645 3.77833 1.00926C3.87449 1.03088 3.95858 1.08883 4.01301 1.171L5.11301 2.822L6.03601 4.207C6.08922 4.28771 6.11012 4.38549 6.09456 4.4809C6.079 4.57632 6.02811 4.66238 5.95201 4.722L4.81601 5.606C4.64864 5.73391 4.53303 5.9179 4.49041 6.1242C4.44779 6.33049 4.48102 6.54524 4.58401 6.729L4.67401 6.893C4.99401 7.479 5.39101 8.208 6.84101 9.658C8.29101 11.108 9.01901 11.505 9.60501 11.824L9.76901 11.914C9.95266 12.0171 10.1673 12.0505 10.3736 12.0081C10.5799 11.9656 10.764 11.8502 10.892 11.683L11.776 10.546C11.8358 10.4701 11.9219 10.4194 12.0173 10.404C12.1127 10.3886 12.2104 10.4097 12.291 10.463L15.327 12.488C15.497 12.601 15.549 12.829 15.443 13.004Z" stroke="white" stroke-width="0.7"/>
</g>
<defs>
<clipPath id="clip0_1_877">
<rect width="17" height="16" fill="white"/>
</clipPath>
</defs>
</svg>
