<svg width="90" height="137" viewBox="0 0 90 137" fill="none" xmlns="http://www.w3.org/2000/svg">
<path fill-rule="evenodd" clip-rule="evenodd" d="M17.886 1.49106C14.5207 5.55506 18.7111 17.5191 26.3775 25.7331L30.944 30.6271L26.6968 33.4391C20.2485 37.7091 11.2921 46.5831 5.34175 54.6001L0 61.7971V94.2871V126.778L6.23569 129.823C16.8843 135.024 24.2444 136.264 44.897 136.338C56.0694 136.377 65.3611 135.927 68.439 135.197C75.849 133.438 84.2607 130.12 87.2169 127.79L89.794 125.758L89.6942 92.5801C89.6394 74.3331 89.2922 60.4911 88.921 61.8201L88.2466 64.2371L86.3838 61.3201C79.2302 50.1181 65.3182 36.6561 56.0544 31.9721L51.7473 29.7941L55.2772 25.8781C62.7421 17.5951 68.3572 1.80506 64.3803 0.276058C63.4265 -0.0909416 57.8273 0.800058 51.9359 2.25606C38.7511 5.51506 37.3304 5.52406 29.9313 2.40306C23.0741 -0.489942 19.7357 -0.741942 17.886 1.49106ZM41.6135 55.5271C41.2244 55.9171 40.9062 57.2901 40.9062 58.5781C40.9062 60.3761 39.9803 61.2911 36.9113 62.5211C25.0495 67.2781 24.856 79.9361 36.5681 84.9681L40.9062 86.8321V92.7011C40.9062 95.9291 40.6228 98.8541 40.2766 99.2011C39.1582 100.322 36.2 98.0481 34.0698 94.4291C32.9285 92.4901 31.3211 90.9031 30.499 90.9031C28.0028 90.9031 26.9731 94.0851 28.3889 97.4171C29.9772 101.152 32.4545 103.39 37.2017 105.378C40.3155 106.683 40.9062 107.411 40.9062 109.948C40.9062 113.35 43.1191 114.797 45.4088 112.892C46.225 112.214 46.8924 110.659 46.8924 109.439C46.8924 107.701 47.7944 106.949 51.0499 105.971C53.3366 105.284 56.4794 103.448 58.0339 101.89C64.1039 95.8061 60.612 85.6061 51.3821 82.4581L47.3913 81.0961L47.096 74.5001C46.9343 70.8721 47.0251 67.9031 47.2985 67.9031C49.2081 67.9031 52.6742 70.4811 54.0909 72.9551C55.0198 74.5761 56.4186 75.9031 57.1998 75.9031C59.3159 75.9031 61.1078 73.2581 60.4334 71.1301C59.3967 67.8561 53.8106 62.9811 50.3495 62.3301C47.4891 61.7931 46.9593 61.2451 46.6989 58.5521C46.4774 56.2701 45.8329 55.3231 44.3572 55.1111C43.2368 54.9501 42.0026 55.1381 41.6135 55.5271ZM0.446975 93.9031C0.446975 112.328 0.581666 119.866 0.746288 110.653C0.91091 101.44 0.91091 86.3661 0.746288 77.1531C0.581666 67.9401 0.446975 75.4781 0.446975 93.9031ZM35.4756 71.1261C33.4632 74.0051 33.5171 75.2261 35.747 77.2481C39.2799 80.4531 40.9062 79.3991 40.9062 73.9031C40.9062 69.6181 40.6288 68.9031 38.9676 68.9031C37.9011 68.9031 36.3297 69.9031 35.4756 71.1261ZM46.8924 93.8361C46.8924 99.2361 47.1119 99.9031 48.8878 99.9031C51.3911 99.9031 54.8741 96.5021 54.8741 94.0581C54.8741 91.9091 52.3379 89.4321 49.1373 88.4541C46.9812 87.7951 46.8924 88.0071 46.8924 93.8361Z" fill="#0C626F"/>
</svg>
