<svg width="132" height="136" viewBox="0 0 132 136" fill="none" xmlns="http://www.w3.org/2000/svg">
<path d="M61.3053 0.0546722C53.3045 0.772659 47.6373 2.05255 41.3791 4.59673C26.908 10.4655 13.6491 23.1239 6.512 37.8895C3.1935 44.7728 1.26906 51.6092 0.284119 60.1314C-0.0947063 63.4716 -0.0947063 72.5557 0.284119 75.8959C1.05692 82.5295 2.31462 87.8051 4.43604 93.3773C10.1336 108.283 22.4227 121.941 36.7574 129.292C43.4399 132.711 50.0769 134.693 58.3504 135.707C61.5932 136.098 70.4122 136.098 73.655 135.707C83.5044 134.49 91.7022 131.696 99.4909 126.904C108.083 121.597 116.22 113.497 121.796 104.678C127.524 95.6406 130.57 86.6345 131.797 75.1155C132.1 72.2123 132.055 63.097 131.721 60.1314C130.964 53.5291 129.691 48.2222 127.569 42.65C121.872 27.744 109.583 14.0866 95.248 6.73506C88.611 3.33243 81.8831 1.33456 73.8065 0.351227C71.7912 0.101486 63.0782 -0.10141 61.3053 0.0546722ZM60.8658 18.9252C59.2748 22.2654 57.9716 25.1374 57.9716 25.3247C57.9716 25.9958 58.9263 30.4755 59.0929 30.5847C59.1839 30.6472 59.9263 30.7096 60.7446 30.7096H62.2145V49.0495V67.4049L60.093 71.2758C58.9263 73.3986 57.9716 75.2716 57.9716 75.4433C57.9716 75.6618 58.6232 76.1613 60.3203 77.2539L62.6539 78.7835H66.0482C68.4726 78.7835 69.4727 78.7367 69.6091 78.5962C69.7455 78.4557 69.791 77.1602 69.791 73.7107V68.997L74.6399 60.35C77.3068 55.5894 79.5647 51.6873 79.6404 51.6561C79.7162 51.6249 80.3374 51.9214 81.0193 52.3116C81.7012 52.7018 82.3376 53.0296 82.4286 53.0296C82.6862 53.0296 85.0955 50.86 85.0955 50.6415C85.0955 50.4386 85.3379 46.1931 85.4743 44.0548C85.7925 38.7167 86.0198 34.0966 85.9744 33.4411C85.9441 32.8635 85.8683 32.645 85.6713 32.6138C85.5349 32.5826 82.1558 34.7834 78.1554 37.4836L70.8971 42.4159L70.5789 44.086C70.3516 45.2254 70.291 45.8029 70.3971 45.9278C70.488 46.037 71.0941 46.4429 71.7608 46.8487C72.4276 47.2389 72.9731 47.6291 72.9731 47.7071C72.9731 47.8164 70.0334 53.1077 69.8516 53.3262C69.8213 53.3574 69.791 48.2847 69.791 42.0569V30.7096H71.276C72.0791 30.7096 72.8216 30.6472 72.9125 30.5847C73.0792 30.4755 74.0338 25.9958 74.0338 25.3247C74.0338 25.1374 72.7458 22.2654 71.1547 18.9565C69.5788 15.6319 68.2757 12.9004 68.2757 12.8848C68.2757 12.8223 69.3364 12.8848 71.6093 13.0877C77.3826 13.5872 84.2621 15.507 88.8838 17.9107C89.7778 18.3789 89.8081 18.4102 89.5959 18.7379C88.3382 20.7514 85.2167 27.1665 85.3379 27.4786C85.444 27.744 89.9445 30.4598 90.3081 30.4598C90.6566 30.4755 92.8538 27.2445 94.6722 24.076C95.2632 23.0459 95.7784 22.1718 95.7935 22.1406C95.8844 22.0469 97.324 23.0771 98.7938 24.2945C102.249 27.1353 105.491 30.4442 108.204 33.9093C109.355 35.3921 110.553 37.0934 110.553 37.2651C110.553 37.3119 110.098 37.6241 109.537 37.9519C108.022 38.8416 102.537 42.6188 102.461 42.8217C102.37 43.0558 105.097 48.0037 105.37 48.113C105.476 48.1442 106.901 47.4886 108.552 46.6458C111.25 45.2566 112.204 44.7415 113.689 43.7894L114.174 43.4929L114.644 44.445C116.417 48.0661 118.175 53.8569 118.872 58.4145C119.175 60.3812 119.493 63.2999 119.493 64.0491V64.4238H117.417C115.205 64.4394 109.916 64.7983 109.643 64.97C109.431 65.0949 109.431 70.9324 109.643 71.0573C109.916 71.229 115.205 71.588 117.417 71.6036H119.493V71.9782C119.493 72.7274 119.175 75.6462 118.872 77.6129C118.175 82.1549 116.417 87.9612 114.644 91.5668L114.189 92.5033L112.871 91.7072C110.901 90.521 105.537 87.8207 105.279 87.8676C104.991 87.93 102.158 92.9091 102.294 93.1276C102.461 93.4086 107.416 96.8112 109.007 97.7321C109.856 98.2316 110.553 98.6842 110.553 98.7466C110.553 98.9339 109.401 100.588 108.204 102.118C105.537 105.521 102.324 108.83 98.9605 111.608C97.6119 112.716 96.0057 113.902 95.8541 113.902C95.7935 113.902 95.3086 113.106 94.7631 112.139C93.7327 110.312 90.6566 105.552 90.3839 105.396C90.2021 105.271 85.444 108.112 85.3228 108.408C85.247 108.627 87.7624 113.918 89.0201 116.134C89.4444 116.899 89.7929 117.539 89.7929 117.586C89.7929 117.695 87.9746 118.585 86.338 119.287C81.8982 121.16 76.822 122.425 71.776 122.955C70.9123 123.033 70.0486 123.111 69.8516 123.111H69.4879V120.957C69.4879 118.663 69.1242 113.247 68.9575 112.982C68.8212 112.747 63.1842 112.747 63.0479 112.982C62.8812 113.247 62.5175 118.663 62.5175 120.957V123.111H62.1538C61.4265 123.111 58.5929 122.784 56.6836 122.471C52.2741 121.753 46.6372 119.943 43.1368 118.117L42.2276 117.648L43.2429 115.807C44.637 113.356 46.819 108.674 46.7129 108.408C46.6069 108.112 41.8034 105.271 41.6064 105.396C41.3488 105.552 38.2727 110.328 37.2423 112.139C36.6968 113.106 36.2119 113.902 36.1513 113.902C35.9998 113.902 34.3935 112.716 33.0449 111.608C29.681 108.83 26.4685 105.521 23.8016 102.118C22.6045 100.588 21.4529 98.9339 21.4529 98.7466C21.4529 98.6842 22.1499 98.2316 23.0136 97.7321C24.5895 96.8112 29.5446 93.4086 29.7113 93.1276C29.8476 92.9091 27.014 87.93 26.7261 87.8676C26.4685 87.8207 21.1044 90.521 19.1345 91.7072L17.8161 92.5033L17.3616 91.5668C15.5887 87.9612 13.8309 82.1549 13.1339 77.6129C12.8308 75.6462 12.5126 72.7274 12.5126 71.9782V71.6036H14.5279C16.6948 71.6036 21.9378 71.229 22.1954 71.0573C22.4227 70.9168 22.4227 65.1105 22.1954 64.97C21.9378 64.7983 16.6948 64.4238 14.5279 64.4238H12.5126V64.0491C12.5126 63.2999 12.8308 60.3812 13.1339 58.4145C13.8309 53.8569 15.5887 48.0661 17.3616 44.445C17.8919 43.368 17.6192 43.3368 19.786 44.6635C20.4982 45.0849 22.3317 46.0683 23.8773 46.8331C26.6352 48.2066 26.6807 48.2222 26.9231 47.8944C27.4686 47.2077 29.6658 43.0246 29.59 42.8217C29.484 42.5564 25.1047 39.5127 23.0439 38.2797C22.2105 37.7802 21.4983 37.3432 21.468 37.3276C21.3771 37.2339 22.3772 35.7511 23.5591 34.2371C26.317 30.6784 29.5294 27.3382 32.8934 24.5443C34.3329 23.358 35.9846 22.125 36.1513 22.125C36.1967 22.125 36.4998 22.5932 36.818 23.1707C37.6817 24.7316 41.3488 30.3818 41.5458 30.4598C41.773 30.5535 46.5766 27.744 46.6675 27.4786C46.7887 27.1509 43.6672 20.7514 42.4095 18.7379C42.1973 18.4102 42.2276 18.3789 43.1217 17.9107C47.7433 15.507 54.5773 13.6028 60.3961 13.0721C62.3357 12.9004 63.6237 12.8223 63.6994 12.8536C63.7298 12.8692 62.4417 15.6006 60.8658 18.9252Z" fill="#0C626F"/>
</svg>
